<?xml version="1.0" standalone="no"?>
<!DOCTYPE svg PUBLIC "-//W3C//DTD SVG 20010904//EN"
 "http://www.w3.org/TR/2001/REC-SVG-20010904/DTD/svg10.dtd">
<svg version="1.0" xmlns="http://www.w3.org/2000/svg"
 width="500.000000pt" height="500.000000pt" viewBox="0 0 500.000000 500.000000"
 preserveAspectRatio="xMidYMid meet">
<metadata>
Created by potrace 1.11, written by Peter Selinger 2001-2013
</metadata>
<g transform="translate(0.000000,500.000000) scale(0.100000,-0.100000)"
fill="#000000" stroke="none">
<path d="M2266 4919 c-90 -10 -146 -19 -236 -36 -35 -6 -44 -8 -57 -13 -5 -1
-11 -2 -15 -1 -13 2 -183 -50 -283 -85 -98 -36 -316 -138 -405 -190 -25 -15
-85 -54 -135 -88 -93 -63 -96 -65 -131 -94 -12 -9 -39 -30 -59 -47 -37 -29
-250 -239 -291 -286 -76 -89 -224 -298 -224 -317 0 -6 -4 -12 -8 -14 -7 -3
-84 -134 -88 -148 0 -3 -17 -41 -38 -84 -77 -164 -127 -313 -170 -509 -41
-184 -51 -285 -51 -517 1 -219 10 -315 44 -478 1 -4 4 -18 7 -32 11 -52 26
-116 34 -140 5 -14 18 -59 31 -100 13 -41 26 -79 31 -85 4 -5 8 -15 8 -23 0
-25 157 -354 172 -360 4 -2 8 -10 8 -18 0 -8 5 -14 10 -14 6 0 10 -5 10 -12 0
-19 153 -238 173 -246 4 -2 7 -7 7 -11 0 -25 255 -283 367 -371 10 -8 39 -31
63 -51 25 -19 60 -44 78 -54 17 -11 32 -23 32 -27 0 -4 3 -7 8 -6 4 1 34 -16
67 -37 61 -40 238 -132 330 -172 85 -38 320 -115 385 -127 14 -2 59 -11 100
-20 99 -20 130 -25 225 -34 101 -9 398 -9 490 0 72 8 237 35 267 44 10 3 28 7
40 10 53 9 67 13 148 39 100 31 138 44 165 56 11 4 49 20 85 35 62 25 260 123
270 134 10 10 45 31 63 36 9 4 17 10 17 15 0 5 6 9 13 9 7 0 22 8 33 18 11 9
44 34 75 54 149 101 378 321 491 473 21 28 42 56 48 62 72 86 290 480 290 526
0 9 4 17 10 17 5 0 9 3 8 8 -1 4 6 30 16 57 27 75 29 79 32 90 1 6 14 54 29
108 27 100 31 118 40 172 3 17 10 55 16 85 31 169 33 566 4 735 -44 256 -127
521 -217 697 -18 35 -33 65 -33 68 0 3 -17 33 -38 68 -20 35 -37 67 -37 73 0
5 -3 9 -8 9 -4 0 -18 20 -32 45 -14 25 -28 45 -32 45 -5 0 -8 6 -8 13 0 7 -11
24 -25 39 -14 15 -25 32 -25 37 0 6 -6 14 -13 18 -8 4 -18 15 -23 24 -28 50
-249 282 -349 366 -97 81 -113 93 -123 93 -6 0 -12 4 -14 9 -5 13 -179 125
-281 180 -145 78 -343 160 -467 193 -19 5 -51 14 -70 19 -19 5 -44 12 -55 14
-20 5 -206 38 -280 50 -60 10 -440 13 -519 4z"/>
</g>
</svg>
